<svg width="1308" height="1408" viewBox="0 0 1308 1408" fill="none" xmlns="http://www.w3.org/2000/svg">
<path d="M359.562 1139.4C294.262 1139.4 238.055 1126.17 190.94 1099.72C144.1 1073 108.006 1035.25 82.6578 986.482C57.3094 937.438 44.6352 879.44 44.6352 812.487C44.6352 747.187 57.3094 689.878 82.6578 640.559C108.006 591.239 143.687 552.804 189.7 525.251C235.988 497.698 290.267 483.922 352.536 483.922C394.416 483.922 433.403 490.672 469.497 504.173C505.866 517.398 537.551 537.374 564.553 564.1C591.83 590.826 613.046 624.44 628.2 664.943C643.354 705.169 650.931 752.284 650.931 806.288V854.642H114.894V745.534H485.202C485.202 720.186 479.691 697.73 468.67 678.168C457.649 658.606 442.357 643.314 422.795 632.293C403.508 620.996 381.053 615.348 355.429 615.348C328.703 615.348 305.007 621.547 284.343 633.946C263.954 646.069 247.974 662.463 236.401 683.127C224.829 703.516 218.906 726.247 218.63 751.32V855.056C218.63 886.466 224.416 913.605 235.988 936.474C247.836 959.342 264.505 976.976 285.996 989.375C307.487 1001.77 332.973 1007.97 362.455 1007.97C382.017 1007.97 399.926 1005.22 416.182 999.707C432.438 994.196 446.352 985.931 457.924 974.91C469.497 963.889 478.313 950.388 484.375 934.407L647.211 945.153C638.945 984.277 622 1018.44 596.376 1047.65C571.028 1076.58 538.24 1099.17 498.013 1115.43C458.062 1131.41 411.912 1139.4 359.562 1139.4Z" fill="#1F1F1F"/>
<path d="M948.438 1139.4C1013.74 1139.4 1069.95 1126.17 1117.06 1099.72C1163.9 1073 1199.99 1035.25 1225.34 986.482C1250.69 937.438 1263.36 879.44 1263.36 812.487C1263.36 747.187 1250.69 689.878 1225.34 640.559C1199.99 591.239 1164.31 552.804 1118.3 525.251C1072.01 497.698 1017.73 483.922 955.464 483.922C913.584 483.922 874.597 490.672 838.503 504.173C802.134 517.398 770.449 537.374 743.447 564.1C716.17 590.826 694.954 624.44 679.8 664.943C664.646 705.169 657.069 752.284 657.069 806.288V854.642H1193.11V745.534H822.798C822.798 720.186 828.309 697.73 839.33 678.168C850.351 658.606 865.643 643.314 885.205 632.293C904.492 620.996 926.947 615.348 952.571 615.348C979.297 615.348 1002.99 621.547 1023.66 633.946C1044.05 646.069 1060.03 662.463 1071.6 683.127C1083.17 703.516 1089.09 726.247 1089.37 751.32V855.056C1089.37 886.466 1083.58 913.605 1072.01 936.474C1060.16 959.342 1043.49 976.976 1022 989.375C1000.51 1001.77 975.027 1007.97 945.545 1007.97C925.983 1007.97 908.074 1005.22 891.818 999.707C875.562 994.196 861.648 985.931 850.076 974.91C838.503 963.889 829.687 950.388 823.625 934.407L660.789 945.153C669.055 984.277 686 1018.44 711.624 1047.65C736.972 1076.58 769.76 1099.17 809.987 1115.43C849.938 1131.41 896.088 1139.4 948.438 1139.4Z" fill="#1F1F1F"/>
<path d="M741.786 502.393C741.786 550.659 702.659 589.786 654.393 589.786C606.127 589.786 567 550.659 567 502.393C567 454.127 606.127 415 654.393 415C702.659 415 741.786 454.127 741.786 502.393Z" fill="#1F1F1F"/>
</svg>
